<svg xmlns="http://www.w3.org/2000/svg" xmlns:xlink="http://www.w3.org/1999/xlink" width="500" zoomAndPan="magnify" viewBox="0 0 375 374.999991" height="500" preserveAspectRatio="xMidYMid meet" version="1.0"><defs><clipPath id="cbe4a146d9"><path d="M 223 131 L 289.554688 131 L 289.554688 271 L 223 271 Z M 223 131 " clip-rule="nonzero"/></clipPath><clipPath id="d92b1809fb"><path d="M 277 134 L 289.554688 134 L 289.554688 148 L 277 148 Z M 277 134 " clip-rule="nonzero"/></clipPath><clipPath id="a096bd61d6"><path d="M 85.554688 131 L 152 131 L 152 271 L 85.554688 271 Z M 85.554688 131 " clip-rule="nonzero"/></clipPath><clipPath id="892d91317f"><path d="M 85.554688 134 L 98 134 L 98 148 L 85.554688 148 Z M 85.554688 134 " clip-rule="nonzero"/></clipPath><clipPath id="ee394f518e"><path d="M 125 254 L 152 254 L 152 289.1875 L 125 289.1875 Z M 125 254 " clip-rule="nonzero"/></clipPath></defs><rect x="-37.5" width="450" fill="#ffffff" y="-37.499999" height="449.999989" fill-opacity="1"/><rect x="-37.5" width="450" fill="#ffffff" y="-37.499999" height="449.999989" fill-opacity="1"/><rect x="-37.5" width="450" fill="#fff3ee" y="-37.499999" height="449.999989" fill-opacity="1"/><g clip-path="url(#cbe4a146d9)"><path fill="#df7a4c" d="M 252.210938 270.003906 C 251.902344 270.003906 251.605469 269.851562 251.433594 269.566406 C 245.871094 260.398438 243.402344 249.476562 244.484375 238.808594 C 245.238281 231.375 247.75 224.046875 251.746094 217.609375 C 253.828125 214.246094 256.398438 211.242188 258.882812 208.332031 C 261.015625 205.832031 263.222656 203.253906 265.078125 200.488281 C 272.085938 190.054688 274.3125 180.253906 276.894531 168.902344 C 279.097656 159.226562 281.589844 148.253906 287.53125 134.773438 C 287.667969 134.464844 287.667969 134.109375 287.53125 133.796875 C 287.402344 133.511719 287.175781 133.296875 286.882812 133.199219 C 285.417969 132.710938 283.621094 132.746094 281.957031 133.300781 C 279.542969 134.105469 277.472656 135.808594 275.769531 137.375 C 266.816406 145.582031 260.566406 156.664062 258.171875 168.570312 C 258.09375 168.972656 257.757812 169.265625 257.347656 169.292969 C 249.785156 169.820312 242.300781 173.117188 236.285156 178.570312 C 230.269531 184.027344 226.261719 191.15625 225.003906 198.632812 C 224.921875 199.125 224.457031 199.457031 223.964844 199.371094 C 223.46875 199.289062 223.136719 198.824219 223.21875 198.332031 C 224.542969 190.457031 228.753906 182.960938 235.070312 177.230469 C 241.203125 171.667969 248.804688 168.238281 256.535156 167.539062 C 259.101562 155.511719 265.476562 144.347656 274.542969 136.035156 C 276.390625 134.34375 278.644531 132.488281 281.386719 131.578125 C 283.441406 130.894531 285.59375 130.859375 287.453125 131.476562 C 288.230469 131.738281 288.84375 132.296875 289.179688 133.058594 C 289.523438 133.832031 289.523438 134.722656 289.183594 135.5 C 283.3125 148.820312 280.839844 159.703125 278.65625 169.296875 C 276.035156 180.828125 273.773438 190.78125 266.578125 201.492188 C 264.660156 204.339844 262.421875 206.960938 260.257812 209.5 C 257.816406 212.355469 255.292969 215.3125 253.28125 218.558594 C 249.429688 224.765625 247.007812 231.828125 246.28125 238.992188 C 245.234375 249.269531 247.617188 259.796875 252.976562 268.628906 C 253.234375 269.058594 253.101562 269.613281 252.675781 269.871094 C 252.53125 269.964844 252.371094 270.003906 252.210938 270.003906 Z M 252.210938 270.003906 " fill-opacity="1" fill-rule="nonzero"/></g><path fill="#df7a4c" d="M 205.0625 276.679688 C 204.605469 276.679688 204.214844 276.335938 204.164062 275.871094 C 202.980469 264.851562 200.957031 253.835938 198.148438 243.132812 C 197.734375 241.542969 197.289062 239.921875 196.859375 238.355469 C 195.144531 232.089844 193.367188 225.609375 192.746094 219.007812 C 191.242188 203.042969 200.554688 188.226562 208.765625 175.148438 C 209.21875 174.429688 209.664062 173.71875 210.109375 173.011719 C 217.878906 160.589844 217.175781 147.375 216.429688 133.382812 C 216.21875 129.386719 216 125.25 216 121.175781 C 216 118.742188 216.085938 116.175781 217.09375 113.867188 C 218.292969 111.125 220.703125 109.324219 223.226562 109.273438 C 223.738281 109.257812 224.140625 109.664062 224.148438 110.160156 C 224.15625 110.660156 223.761719 111.074219 223.265625 111.082031 C 221.191406 111.121094 219.503906 112.875 218.75 114.59375 C 217.882812 116.582031 217.808594 118.839844 217.808594 121.171875 C 217.808594 125.199219 218.027344 129.308594 218.238281 133.28125 C 218.960938 146.9375 219.710938 161.058594 211.644531 173.964844 C 211.203125 174.671875 210.753906 175.382812 210.300781 176.101562 C 202.242188 188.933594 193.105469 203.476562 194.554688 218.828125 C 195.160156 225.273438 196.914062 231.679688 198.609375 237.871094 C 199.039062 239.445312 199.480469 241.070312 199.902344 242.667969 C 202.730469 253.460938 204.769531 264.566406 205.96875 275.671875 C 206.019531 276.167969 205.660156 276.613281 205.164062 276.667969 C 205.125 276.675781 205.09375 276.679688 205.0625 276.679688 Z M 205.0625 276.679688 " fill-opacity="1" fill-rule="nonzero"/><path fill="#df7a4c" d="M 252.207031 155.058594 C 252.203125 155.058594 252.203125 155.058594 252.199219 155.058594 C 251.695312 155.054688 251.296875 154.648438 251.300781 154.148438 C 251.402344 140.285156 248.792969 127.242188 246.027344 113.4375 C 245.617188 111.371094 245.199219 109.304688 244.796875 107.226562 L 244.761719 107.070312 C 244.003906 103.179688 243.371094 98.953125 244.46875 97.046875 C 245.371094 95.46875 246.789062 94.59375 248.371094 94.628906 C 250.289062 94.675781 252.113281 96.03125 253.242188 98.25 C 255.722656 103.132812 258.675781 110.890625 260.097656 114.621094 L 260.191406 114.878906 C 260.453125 115.5625 260.800781 116.457031 261.171875 117.339844 C 264.898438 126.1875 266.933594 133.203125 269.378906 143.050781 C 269.5 143.535156 269.203125 144.023438 268.71875 144.144531 C 268.234375 144.265625 267.746094 143.972656 267.625 143.488281 C 265.199219 133.722656 263.1875 126.78125 259.503906 118.042969 C 259.117188 117.132812 258.765625 116.21875 258.5 115.519531 L 258.402344 115.261719 C 256.996094 111.566406 254.066406 103.867188 251.632812 99.070312 C 250.820312 97.476562 249.554688 96.464844 248.328125 96.433594 C 247.40625 96.425781 246.621094 96.933594 246.039062 97.945312 C 245.132812 99.523438 246.191406 104.9375 246.539062 106.722656 L 246.574219 106.878906 C 246.976562 108.953125 247.390625 111.015625 247.800781 113.078125 C 250.460938 126.367188 253.210938 140.109375 253.109375 154.15625 C 253.105469 154.660156 252.703125 155.058594 252.207031 155.058594 Z M 252.207031 155.058594 " fill-opacity="1" fill-rule="nonzero"/><path fill="#df7a4c" d="M 239.90625 157.117188 C 239.453125 157.117188 239.0625 156.773438 239.007812 156.3125 C 238.410156 150.957031 237.835938 145.707031 237.273438 140.503906 C 235.59375 125.128906 234.007812 110.609375 231.957031 95.039062 C 231.320312 90.1875 233.261719 87.707031 235.117188 87.054688 C 238.222656 85.96875 241.292969 88.507812 242.957031 91.511719 C 244.390625 94.101562 245.046875 96.472656 245.691406 99.082031 C 245.8125 99.566406 245.519531 100.054688 245.035156 100.175781 C 244.546875 100.296875 244.058594 100 243.9375 99.515625 C 243.324219 97.035156 242.707031 94.785156 241.378906 92.390625 C 240.476562 90.765625 238.132812 87.910156 235.714844 88.761719 C 234.449219 89.203125 233.292969 91.285156 233.753906 94.800781 C 235.804688 110.390625 237.390625 124.921875 239.070312 140.308594 C 239.636719 145.507812 240.210938 150.757812 240.808594 156.109375 C 240.863281 156.605469 240.503906 157.054688 240.007812 157.109375 C 239.972656 157.117188 239.9375 157.117188 239.90625 157.117188 Z M 239.90625 157.117188 " fill-opacity="1" fill-rule="nonzero"/><path fill="#df7a4c" d="M 227.601562 159.421875 C 227.140625 159.421875 226.746094 159.066406 226.703125 158.597656 L 222.167969 107.210938 C 221.953125 104.765625 221.707031 101.988281 222.453125 99.378906 C 223.3125 96.351562 225.53125 94.070312 228.105469 93.550781 C 229.910156 93.191406 232.117188 94.09375 233.722656 95.851562 C 234.058594 96.21875 234.035156 96.792969 233.667969 97.128906 C 233.300781 97.464844 232.726562 97.441406 232.390625 97.070312 C 231.21875 95.789062 229.640625 95.089844 228.460938 95.328125 C 226.542969 95.710938 224.867188 97.496094 224.1875 99.871094 C 223.539062 102.164062 223.757812 104.648438 223.96875 107.046875 L 228.503906 158.4375 C 228.546875 158.933594 228.179688 159.375 227.683594 159.417969 C 227.660156 159.421875 227.632812 159.421875 227.601562 159.421875 Z M 227.601562 159.421875 " fill-opacity="1" fill-rule="nonzero"/><g clip-path="url(#d92b1809fb)"><path fill="#df7a4c" d="M 283.730469 147.550781 C 283.550781 147.550781 283.367188 147.5 283.210938 147.390625 C 281.628906 146.28125 279.894531 145.414062 278.0625 144.804688 C 277.597656 144.652344 277.34375 144.152344 277.480469 143.6875 C 278.109375 141.597656 279.070312 138.941406 280.976562 136.976562 C 283.074219 134.824219 286.011719 133.957031 288.457031 134.785156 C 288.929688 134.941406 289.183594 135.453125 289.027344 135.925781 C 288.867188 136.398438 288.351562 136.652344 287.882812 136.496094 C 285.847656 135.808594 283.597656 136.875 282.273438 138.238281 C 280.867188 139.683594 280.050781 141.589844 279.46875 143.386719 C 281.160156 144.023438 282.761719 144.871094 284.246094 145.90625 C 284.652344 146.195312 284.753906 146.753906 284.472656 147.167969 C 284.296875 147.414062 284.015625 147.550781 283.730469 147.550781 Z M 283.730469 147.550781 " fill-opacity="1" fill-rule="nonzero"/></g><g clip-path="url(#a096bd61d6)"><path fill="#df7a4c" d="M 122.859375 270.003906 C 122.699219 270.003906 122.535156 269.964844 122.390625 269.871094 C 121.964844 269.613281 121.828125 269.054688 122.089844 268.628906 C 127.449219 259.796875 129.824219 249.269531 128.78125 238.992188 C 128.054688 231.828125 125.636719 224.765625 121.785156 218.558594 C 119.773438 215.3125 117.246094 212.359375 114.808594 209.5 C 112.640625 206.960938 110.398438 204.339844 108.488281 201.492188 C 101.292969 190.777344 99.03125 180.828125 96.40625 169.296875 C 94.226562 159.703125 91.753906 148.820312 85.882812 135.5 C 85.539062 134.722656 85.542969 133.832031 85.886719 133.058594 C 86.222656 132.296875 86.835938 131.738281 87.613281 131.476562 C 89.46875 130.855469 91.628906 130.890625 93.679688 131.578125 C 96.417969 132.492188 98.675781 134.34375 100.519531 136.035156 C 109.585938 144.347656 115.964844 155.511719 118.527344 167.539062 C 126.261719 168.238281 133.859375 171.667969 139.996094 177.230469 C 146.308594 182.960938 150.519531 190.453125 151.847656 198.332031 C 151.929688 198.824219 151.59375 199.289062 151.101562 199.371094 C 150.613281 199.457031 150.144531 199.121094 150.058594 198.632812 C 148.800781 191.152344 144.796875 184.03125 138.777344 178.570312 C 132.761719 173.113281 125.285156 169.820312 117.714844 169.292969 C 117.308594 169.265625 116.972656 168.972656 116.890625 168.570312 C 114.5 156.664062 108.25 145.582031 99.296875 137.375 C 97.589844 135.808594 95.523438 134.105469 93.105469 133.300781 C 91.441406 132.746094 89.648438 132.710938 88.179688 133.199219 C 87.894531 133.296875 87.664062 133.507812 87.535156 133.796875 C 87.398438 134.109375 87.398438 134.464844 87.535156 134.773438 C 93.472656 148.257812 95.972656 159.226562 98.167969 168.902344 C 100.75 180.253906 102.980469 190.054688 109.988281 200.488281 C 111.839844 203.253906 114.046875 205.832031 116.179688 208.332031 C 118.664062 211.242188 121.238281 214.25 123.320312 217.609375 C 127.3125 224.046875 129.824219 231.378906 130.582031 238.808594 C 131.667969 249.476562 129.199219 260.402344 123.636719 269.566406 C 123.460938 269.851562 123.167969 270.003906 122.859375 270.003906 Z M 122.859375 270.003906 " fill-opacity="1" fill-rule="nonzero"/></g><path fill="#df7a4c" d="M 169.792969 278.78125 C 169.765625 278.78125 169.734375 278.78125 169.703125 278.777344 C 169.207031 278.726562 168.84375 278.28125 168.890625 277.785156 C 170.050781 265.957031 172.164062 254.148438 175.175781 242.671875 C 175.59375 241.074219 176.039062 239.449219 176.46875 237.878906 C 178.164062 231.6875 179.917969 225.28125 180.523438 218.832031 C 181.972656 203.480469 172.835938 188.9375 164.773438 176.105469 C 164.324219 175.386719 163.875 174.675781 163.433594 173.96875 C 155.359375 161.0625 156.113281 146.941406 156.839844 133.285156 C 157.050781 129.3125 157.269531 125.203125 157.269531 121.175781 C 157.269531 118.84375 157.195312 116.585938 156.328125 114.597656 C 155.574219 112.878906 153.886719 111.125 151.8125 111.085938 C 151.3125 111.078125 150.917969 110.664062 150.929688 110.164062 C 150.9375 109.671875 151.339844 109.277344 151.832031 109.277344 C 151.839844 109.277344 151.847656 109.277344 151.851562 109.277344 C 154.375 109.328125 156.78125 111.128906 157.984375 113.871094 C 158.992188 116.179688 159.078125 118.746094 159.078125 121.179688 C 159.078125 125.253906 158.859375 129.390625 158.644531 133.386719 C 157.902344 147.378906 157.199219 160.59375 164.96875 173.015625 C 165.410156 173.722656 165.859375 174.433594 166.304688 175.148438 C 174.519531 188.226562 183.828125 203.046875 182.328125 219.007812 C 181.703125 225.609375 179.929688 232.089844 178.214844 238.359375 C 177.785156 239.925781 177.339844 241.546875 176.925781 243.132812 C 173.941406 254.515625 171.847656 266.234375 170.695312 277.964844 C 170.644531 278.429688 170.25 278.78125 169.792969 278.78125 Z M 169.792969 278.78125 " fill-opacity="1" fill-rule="nonzero"/><path fill="#df7a4c" d="M 122.863281 155.058594 C 122.367188 155.058594 121.964844 154.660156 121.957031 154.164062 C 121.859375 140.113281 124.605469 126.371094 127.269531 113.082031 C 127.679688 111.019531 128.09375 108.953125 128.496094 106.882812 L 128.527344 106.726562 C 128.875 104.945312 129.933594 99.527344 129.03125 97.949219 C 128.449219 96.933594 127.660156 96.425781 126.742188 96.4375 C 125.515625 96.46875 124.25 97.480469 123.4375 99.074219 C 121 103.867188 118.074219 111.5625 116.671875 115.257812 L 116.570312 115.527344 C 116.304688 116.21875 115.949219 117.132812 115.566406 118.046875 C 111.882812 126.785156 109.871094 133.734375 107.445312 143.492188 C 107.324219 143.976562 106.835938 144.269531 106.351562 144.148438 C 105.867188 144.027344 105.570312 143.539062 105.691406 143.054688 C 108.136719 133.207031 110.171875 126.191406 113.898438 117.34375 C 114.269531 116.457031 114.617188 115.5625 114.875 114.882812 L 114.976562 114.617188 C 116.394531 110.890625 119.34375 103.136719 121.824219 98.261719 C 122.953125 96.039062 124.773438 94.683594 126.699219 94.636719 C 128.261719 94.589844 129.695312 95.476562 130.601562 97.054688 C 131.695312 98.964844 131.066406 103.195312 130.304688 107.078125 L 130.273438 107.234375 C 129.871094 109.3125 129.453125 111.378906 129.042969 113.445312 C 126.277344 127.25 123.667969 140.292969 123.769531 154.15625 C 123.773438 154.660156 123.367188 155.066406 122.871094 155.066406 C 122.867188 155.058594 122.863281 155.058594 122.863281 155.058594 Z M 122.863281 155.058594 " fill-opacity="1" fill-rule="nonzero"/><path fill="#df7a4c" d="M 135.164062 157.117188 C 135.128906 157.117188 135.09375 157.117188 135.0625 157.113281 C 134.566406 157.054688 134.210938 156.605469 134.261719 156.113281 C 134.859375 150.765625 135.433594 145.515625 136 140.316406 C 137.679688 124.929688 139.265625 110.398438 141.316406 94.804688 C 141.78125 91.289062 140.621094 89.207031 139.351562 88.765625 C 136.9375 87.914062 134.59375 90.769531 133.691406 92.394531 C 132.363281 94.789062 131.746094 97.039062 131.128906 99.519531 C 131.007812 100.003906 130.519531 100.300781 130.035156 100.179688 C 129.550781 100.058594 129.257812 99.570312 129.378906 99.085938 C 130.023438 96.472656 130.679688 94.101562 132.113281 91.515625 C 133.777344 88.507812 136.847656 85.96875 139.949219 87.058594 C 141.804688 87.710938 143.75 90.191406 143.109375 95.042969 C 141.0625 110.613281 139.476562 125.136719 137.796875 140.511719 C 137.230469 145.714844 136.65625 150.960938 136.058594 156.316406 C 136.011719 156.773438 135.621094 157.117188 135.164062 157.117188 Z M 135.164062 157.117188 " fill-opacity="1" fill-rule="nonzero"/><path fill="#df7a4c" d="M 147.464844 159.421875 C 147.4375 159.421875 147.414062 159.421875 147.386719 159.417969 C 146.886719 159.375 146.519531 158.933594 146.566406 158.4375 L 151.101562 107.046875 C 151.3125 104.648438 151.535156 102.164062 150.878906 99.871094 C 150.203125 97.492188 148.527344 95.707031 146.609375 95.328125 C 145.429688 95.09375 143.851562 95.789062 142.679688 97.070312 C 142.34375 97.441406 141.769531 97.464844 141.402344 97.128906 C 141.035156 96.792969 141.003906 96.21875 141.34375 95.851562 C 142.953125 94.09375 145.160156 93.191406 146.964844 93.550781 C 149.539062 94.066406 151.757812 96.351562 152.617188 99.378906 C 153.359375 101.992188 153.113281 104.765625 152.898438 107.210938 L 148.363281 158.597656 C 148.324219 159.066406 147.925781 159.421875 147.464844 159.421875 Z M 147.464844 159.421875 " fill-opacity="1" fill-rule="nonzero"/><g clip-path="url(#892d91317f)"><path fill="#df7a4c" d="M 91.339844 147.550781 C 91.054688 147.550781 90.773438 147.417969 90.597656 147.164062 C 90.308594 146.753906 90.410156 146.191406 90.824219 145.902344 C 92.304688 144.867188 93.910156 144.023438 95.597656 143.382812 C 95.011719 141.585938 94.203125 139.679688 92.796875 138.234375 C 91.472656 136.871094 89.226562 135.808594 87.1875 136.492188 C 86.714844 136.652344 86.203125 136.394531 86.042969 135.921875 C 85.886719 135.449219 86.140625 134.9375 86.613281 134.777344 C 89.058594 133.953125 91.996094 134.816406 94.09375 136.972656 C 96 138.933594 96.960938 141.585938 97.585938 143.683594 C 97.730469 144.152344 97.46875 144.644531 97.003906 144.800781 C 95.175781 145.410156 93.441406 146.277344 91.859375 147.386719 C 91.699219 147.5 91.519531 147.550781 91.339844 147.550781 Z M 91.339844 147.550781 " fill-opacity="1" fill-rule="nonzero"/></g><path fill="#b14a2a" d="M 152.003906 224.40625 C 150.894531 223.144531 151 221.238281 152.261719 220.128906 C 153.507812 219.007812 155.417969 219.128906 156.535156 220.371094 C 157.644531 221.632812 157.539062 223.539062 156.277344 224.648438 C 155.699219 225.164062 154.988281 225.417969 154.261719 225.417969 C 153.429688 225.417969 152.609375 225.070312 152.003906 224.40625 Z M 156.875 219.113281 C 156.054688 217.65625 156.574219 215.804688 158.042969 214.984375 C 159.5 214.164062 161.347656 214.683594 162.167969 216.136719 C 162.988281 217.609375 162.472656 219.441406 161.015625 220.277344 C 160.546875 220.539062 160.03125 220.660156 159.53125 220.660156 C 158.46875 220.660156 157.4375 220.113281 156.875 219.113281 Z M 163.546875 215.519531 C 162.847656 213.988281 163.503906 212.199219 165.035156 211.488281 C 166.546875 210.773438 168.355469 211.441406 169.054688 212.957031 C 169.765625 214.472656 169.097656 216.277344 167.582031 216.988281 C 167.175781 217.171875 166.734375 217.261719 166.308594 217.261719 C 165.171875 217.261719 164.0625 216.625 163.546875 215.519531 Z M 170.449219 212.347656 C 169.71875 210.847656 170.34375 209.027344 171.859375 208.296875 C 173.359375 207.570312 175.179688 208.195312 175.90625 209.691406 C 176.632812 211.207031 176.011719 213.03125 174.496094 213.757812 C 174.070312 213.957031 173.632812 214.0625 173.175781 214.0625 C 172.054688 214.0625 170.976562 213.425781 170.449219 212.347656 Z M 177.238281 208.980469 C 176.390625 207.539062 176.859375 205.691406 178.300781 204.828125 C 179.746094 203.980469 181.605469 204.449219 182.457031 205.890625 C 183.320312 207.332031 182.847656 209.195312 181.410156 210.042969 C 180.925781 210.332031 180.378906 210.46875 179.863281 210.46875 C 178.820312 210.46875 177.816406 209.9375 177.238281 208.980469 Z M 183.789062 205.164062 C 183.015625 203.675781 183.574219 201.839844 185.0625 201.070312 C 186.546875 200.28125 188.382812 200.855469 189.15625 202.34375 C 189.941406 203.8125 189.367188 205.648438 187.882812 206.4375 C 187.441406 206.664062 186.957031 206.785156 186.472656 206.785156 C 185.382812 206.785156 184.335938 206.195312 183.789062 205.164062 Z M 190.523438 201.65625 C 189.765625 200.152344 190.371094 198.335938 191.875 197.589844 C 193.371094 196.832031 195.195312 197.4375 195.953125 198.941406 C 196.699219 200.445312 196.09375 202.261719 194.589844 203.023438 C 194.148438 203.230469 193.695312 203.339844 193.238281 203.339844 C 192.117188 203.339844 191.054688 202.71875 190.523438 201.65625 Z M 197.300781 198.277344 C 196.539062 196.789062 197.148438 194.957031 198.632812 194.214844 C 200.136719 193.453125 201.953125 194.046875 202.714844 195.546875 C 203.472656 197.035156 202.878906 198.851562 201.382812 199.613281 C 200.941406 199.835938 200.472656 199.941406 200.015625 199.941406 C 198.910156 199.941406 197.847656 199.335938 197.300781 198.277344 Z M 204.0625 194.847656 C 203.261719 193.375 203.789062 191.527344 205.261719 190.722656 C 206.714844 189.917969 208.566406 190.453125 209.367188 191.917969 C 210.1875 193.371094 209.640625 195.222656 208.183594 196.027344 C 207.714844 196.285156 207.214844 196.40625 206.714844 196.40625 C 205.65625 196.410156 204.609375 195.847656 204.0625 194.847656 Z M 210.691406 191.164062 C 209.792969 189.734375 210.207031 187.875 211.617188 186.976562 C 213.027344 186.066406 214.90625 186.476562 215.800781 187.902344 C 216.710938 189.3125 216.285156 191.179688 214.875 192.085938 C 214.375 192.40625 213.8125 192.554688 213.25 192.554688 C 212.253906 192.558594 211.269531 192.058594 210.691406 191.164062 Z M 217.089844 187.070312 C 215.96875 185.828125 216.074219 183.902344 217.316406 182.777344 C 218.5625 181.671875 220.484375 181.777344 221.605469 183.019531 C 222.714844 184.265625 222.621094 186.175781 221.363281 187.296875 C 220.789062 187.824219 220.074219 188.066406 219.347656 188.066406 C 218.515625 188.070312 217.695312 187.734375 217.089844 187.070312 Z M 222.59375 181.867188 C 221.457031 180.640625 221.519531 178.730469 222.730469 177.578125 C 223.957031 176.425781 225.871094 176.488281 227.023438 177.714844 C 228.15625 178.925781 228.113281 180.855469 226.882812 181.988281 C 226.292969 182.550781 225.550781 182.808594 224.808594 182.808594 C 224.003906 182.808594 223.199219 182.492188 222.59375 181.867188 Z M 228.234375 176.800781 C 227.324219 175.390625 227.714844 173.511719 229.125 172.601562 C 230.535156 171.691406 232.402344 172.082031 233.328125 173.480469 C 234.238281 174.890625 233.847656 176.769531 232.4375 177.683594 C 231.933594 178.015625 231.359375 178.183594 230.78125 178.183594 C 229.796875 178.183594 228.828125 177.683594 228.234375 176.800781 Z M 234.617188 172.691406 C 233.722656 171.28125 234.148438 169.402344 235.570312 168.507812 C 236.980469 167.628906 238.859375 168.050781 239.757812 169.464844 C 240.636719 170.890625 240.214844 172.753906 238.804688 173.648438 C 238.300781 173.96875 237.742188 174.117188 237.195312 174.117188 C 236.179688 174.117188 235.195312 173.617188 234.617188 172.691406 Z M 241.035156 168.660156 C 240.09375 167.277344 240.457031 165.382812 241.835938 164.445312 C 243.214844 163.503906 245.097656 163.855469 246.050781 165.234375 C 246.992188 166.628906 246.640625 168.507812 245.246094 169.449219 C 244.730469 169.8125 244.140625 169.980469 243.550781 169.980469 C 242.582031 169.980469 241.625 169.523438 241.035156 168.660156 Z M 247.296875 164.367188 C 246.222656 163.078125 246.386719 161.167969 247.675781 160.09375 C 248.964844 159.03125 250.875 159.199219 251.949219 160.472656 C 253.027344 161.761719 252.859375 163.675781 251.570312 164.75 C 250.992188 165.21875 250.308594 165.460938 249.632812 165.460938 C 248.75 165.460938 247.902344 165.078125 247.296875 164.367188 Z M 253.042969 159.410156 C 251.796875 158.304688 251.675781 156.375 252.800781 155.136719 C 253.90625 153.875 255.816406 153.769531 257.074219 154.878906 C 258.335938 155.996094 258.441406 157.910156 257.332031 159.167969 C 256.726562 159.835938 255.890625 160.183594 255.058594 160.183594 C 254.347656 160.183594 253.621094 159.925781 253.042969 159.410156 Z M 258.015625 153.660156 C 256.589844 152.765625 256.164062 150.902344 257.058594 149.476562 C 257.953125 148.066406 259.816406 147.640625 261.242188 148.535156 C 262.652344 149.429688 263.078125 151.292969 262.195312 152.71875 C 261.605469 153.628906 260.636719 154.128906 259.621094 154.128906 C 259.078125 154.132812 258.515625 153.980469 258.015625 153.660156 Z M 261.957031 147.171875 C 260.382812 146.59375 259.59375 144.851562 260.167969 143.273438 C 260.746094 141.707031 262.503906 140.910156 264.0625 141.484375 C 265.640625 142.074219 266.445312 143.816406 265.855469 145.378906 C 265.398438 146.605469 264.246094 147.367188 263 147.367188 C 262.65625 147.371094 262.304688 147.308594 261.957031 147.171875 Z M 264.445312 139.984375 C 262.773438 139.847656 261.53125 138.390625 261.667969 136.722656 C 261.789062 135.054688 263.261719 133.808594 264.929688 133.933594 C 266.597656 134.070312 267.839844 135.527344 267.714844 137.195312 C 267.578125 138.789062 266.261719 140 264.683594 140 C 264.613281 140 264.535156 140 264.445312 139.984375 Z M 261.09375 130.25 C 260.652344 128.625 261.613281 126.960938 263.214844 126.519531 C 264.839844 126.078125 266.503906 127.039062 266.945312 128.65625 C 267.386719 130.265625 266.425781 131.933594 264.808594 132.375 C 264.53125 132.453125 264.277344 132.480469 264.019531 132.480469 C 262.671875 132.476562 261.457031 131.597656 261.09375 130.25 Z M 261.09375 130.25 " fill-opacity="1" fill-rule="nonzero"/><path fill="#b14a2a" d="M 103.574219 130.398438 C 103.667969 130.398438 103.773438 130.398438 103.863281 130.382812 C 105.53125 130.234375 106.757812 128.746094 106.589844 127.078125 C 106.441406 125.410156 104.953125 124.195312 103.285156 124.351562 C 101.621094 124.515625 100.394531 125.996094 100.554688 127.65625 C 100.710938 129.230469 102.027344 130.398438 103.574219 130.398438 Z M 103.574219 130.398438 " fill-opacity="1" fill-rule="nonzero"/><path fill="#b14a2a" d="M 108.367188 138.359375 C 107.261719 139.636719 107.398438 141.542969 108.671875 142.632812 C 109.246094 143.136719 109.941406 143.378906 110.65625 143.378906 C 111.507812 143.378906 112.355469 143.03125 112.949219 142.332031 C 114.054688 141.070312 113.902344 139.148438 112.644531 138.054688 C 111.386719 136.964844 109.457031 137.101562 108.367188 138.359375 Z M 108.367188 138.359375 " fill-opacity="1" fill-rule="nonzero"/><path fill="#b14a2a" d="M 118.390625 142.03125 C 116.9375 141.199219 115.070312 141.699219 114.25 143.15625 C 113.414062 144.609375 113.914062 146.460938 115.371094 147.296875 C 115.839844 147.566406 116.359375 147.6875 116.875 147.6875 C 117.9375 147.6875 118.953125 147.144531 119.515625 146.15625 C 120.347656 144.714844 119.828125 142.847656 118.390625 142.03125 Z M 118.390625 142.03125 " fill-opacity="1" fill-rule="nonzero"/><path fill="#b14a2a" d="M 103.515625 122.714844 C 103.953125 122.941406 104.421875 123.046875 104.878906 123.046875 C 105.988281 123.046875 107.0625 122.4375 107.59375 121.375 C 108.355469 119.890625 107.75 118.054688 106.261719 117.3125 C 104.757812 116.550781 102.941406 117.144531 102.179688 118.632812 C 101.421875 120.136719 102.015625 121.953125 103.515625 122.714844 Z M 103.515625 122.714844 " fill-opacity="1" fill-rule="nonzero"/><path fill="#b14a2a" d="M 108.488281 133.097656 C 107.667969 131.628906 105.832031 131.09375 104.363281 131.902344 C 102.890625 132.722656 102.359375 134.558594 103.167969 136.027344 C 103.730469 137.03125 104.757812 137.589844 105.832031 137.589844 C 106.320312 137.589844 106.820312 137.46875 107.289062 137.210938 C 108.761719 136.402344 109.292969 134.558594 108.488281 133.097656 Z M 108.488281 133.097656 " fill-opacity="1" fill-rule="nonzero"/><path fill="#b14a2a" d="M 155.96875 175.753906 C 156.390625 177.015625 157.574219 177.820312 158.847656 177.820312 C 159.167969 177.820312 159.484375 177.777344 159.804688 177.667969 C 161.398438 177.136719 162.246094 175.40625 161.714844 173.832031 C 161.714844 173.816406 161.714844 173.816406 161.714844 173.816406 C 161.1875 172.238281 159.472656 171.375 157.882812 171.90625 C 156.28125 172.449219 155.433594 174.164062 155.96875 175.753906 Z M 155.96875 175.753906 " fill-opacity="1" fill-rule="nonzero"/><path fill="#b14a2a" d="M 152.855469 169.933594 C 153.460938 170.738281 154.371094 171.160156 155.296875 171.160156 C 155.917969 171.160156 156.558594 170.964844 157.101562 170.570312 C 158.453125 169.570312 158.738281 167.65625 157.742188 166.324219 C 156.738281 164.976562 154.84375 164.6875 153.496094 165.6875 C 152.144531 166.6875 151.871094 168.582031 152.855469 169.933594 Z M 152.855469 169.933594 " fill-opacity="1" fill-rule="nonzero"/><path fill="#b14a2a" d="M 150.128906 165.625 C 150.976562 165.625 151.8125 165.277344 152.417969 164.59375 C 153.527344 163.335938 153.390625 161.421875 152.132812 160.320312 C 150.871094 159.214844 148.964844 159.335938 147.859375 160.589844 C 146.75 161.851562 146.871094 163.773438 148.144531 164.882812 C 148.71875 165.382812 149.414062 165.625 150.128906 165.625 Z M 150.128906 165.625 " fill-opacity="1" fill-rule="nonzero"/><path fill="#b14a2a" d="M 109.992188 117.554688 C 110.554688 117.554688 111.125 117.40625 111.628906 117.070312 C 113.039062 116.160156 113.445312 114.28125 112.519531 112.882812 C 111.628906 111.472656 109.746094 111.066406 108.335938 111.972656 C 106.925781 112.882812 106.527344 114.761719 107.4375 116.171875 C 108.019531 117.070312 108.988281 117.554688 109.992188 117.554688 Z M 109.992188 117.554688 " fill-opacity="1" fill-rule="nonzero"/><path fill="#b14a2a" d="M 116.265625 108.714844 C 114.640625 109.09375 113.628906 110.730469 114.007812 112.355469 C 114.179688 113.085938 114.601562 113.6875 115.15625 114.097656 L 117.21875 108.660156 C 116.914062 108.632812 116.589844 108.640625 116.265625 108.714844 Z M 116.265625 108.714844 " fill-opacity="1" fill-rule="nonzero"/><path fill="#b14a2a" d="M 156.558594 193.816406 C 155.027344 193.132812 153.234375 193.816406 152.554688 195.332031 L 152.535156 195.332031 C 151.855469 196.863281 152.535156 198.667969 154.066406 199.351562 C 154.464844 199.535156 154.886719 199.625 155.3125 199.625 C 156.464844 199.625 157.570312 198.957031 158.070312 197.816406 C 158.753906 196.304688 158.089844 194.5 156.558594 193.816406 Z M 156.558594 193.816406 " fill-opacity="1" fill-rule="nonzero"/><path fill="#b14a2a" d="M 153.433594 200.730469 C 151.875 200.140625 150.113281 200.929688 149.523438 202.488281 C 148.933594 204.050781 149.71875 205.808594 151.28125 206.398438 C 151.644531 206.535156 151.992188 206.597656 152.355469 206.597656 C 153.582031 206.597656 154.734375 205.855469 155.191406 204.640625 C 155.785156 203.066406 154.996094 201.324219 153.433594 200.730469 Z M 153.433594 200.730469 " fill-opacity="1" fill-rule="nonzero"/><path fill="#b14a2a" d="M 149.230469 215.261719 C 147.578125 215.078125 146.074219 216.273438 145.882812 217.933594 C 145.699219 219.601562 146.894531 221.097656 148.554688 221.296875 C 148.675781 221.296875 148.796875 221.3125 148.898438 221.3125 C 150.429688 221.3125 151.738281 220.160156 151.917969 218.613281 C 152.101562 216.957031 150.898438 215.441406 149.230469 215.261719 Z M 149.230469 215.261719 " fill-opacity="1" fill-rule="nonzero"/><path fill="#b14a2a" d="M 150.828125 207.847656 C 149.191406 207.464844 147.550781 208.484375 147.171875 210.121094 C 146.792969 211.746094 147.808594 213.382812 149.445312 213.761719 C 149.671875 213.804688 149.902344 213.839844 150.128906 213.839844 C 151.511719 213.839844 152.75 212.898438 153.085938 211.488281 C 153.460938 209.863281 152.449219 208.222656 150.828125 207.847656 Z M 150.828125 207.847656 " fill-opacity="1" fill-rule="nonzero"/><path fill="#b14a2a" d="M 159.394531 186.78125 C 157.816406 186.203125 156.070312 187.023438 155.496094 188.585938 C 154.917969 190.160156 155.71875 191.90625 157.300781 192.484375 C 157.632812 192.605469 158 192.664062 158.347656 192.664062 C 159.574219 192.664062 160.742188 191.90625 161.183594 190.675781 C 161.773438 189.101562 160.953125 187.371094 159.394531 186.78125 Z M 159.394531 186.78125 " fill-opacity="1" fill-rule="nonzero"/><path fill="#b14a2a" d="M 160.03125 179.214844 C 158.347656 179.136719 156.9375 180.441406 156.863281 182.109375 C 156.789062 183.78125 158.09375 185.207031 159.761719 185.277344 C 159.804688 185.277344 159.855469 185.277344 159.898438 185.277344 C 161.507812 185.277344 162.855469 184.007812 162.933594 182.382812 C 162.984375 180.71875 161.695312 179.289062 160.03125 179.214844 Z M 160.03125 179.214844 " fill-opacity="1" fill-rule="nonzero"/><path fill="#b14a2a" d="M 131.824219 148.261719 C 130.277344 147.613281 128.503906 148.324219 127.835938 149.855469 C 127.1875 151.402344 127.898438 153.175781 129.429688 153.84375 C 129.824219 154.007812 130.234375 154.085938 130.625 154.085938 C 131.808594 154.085938 132.917969 153.402344 133.417969 152.25 C 134.066406 150.707031 133.355469 148.933594 131.824219 148.261719 Z M 131.824219 148.261719 " fill-opacity="1" fill-rule="nonzero"/><path fill="#b14a2a" d="M 148.445312 222.8125 C 146.773438 222.875 145.46875 224.285156 145.53125 225.953125 C 145.589844 227.589844 146.941406 228.878906 148.546875 228.878906 C 148.59375 228.878906 148.636719 228.878906 148.671875 228.863281 C 150.355469 228.800781 151.65625 227.390625 151.59375 225.722656 C 151.523438 224.058594 150.128906 222.753906 148.445312 222.8125 Z M 148.445312 222.8125 " fill-opacity="1" fill-rule="nonzero"/><path fill="#b14a2a" d="M 124.914062 145.292969 C 123.382812 144.609375 121.574219 145.277344 120.890625 146.808594 C 120.210938 148.339844 120.890625 150.128906 122.40625 150.828125 L 122.421875 150.828125 C 122.816406 151.011719 123.238281 151.085938 123.652344 151.085938 C 124.820312 151.085938 125.925781 150.421875 126.425781 149.296875 C 127.109375 147.777344 126.425781 145.976562 124.914062 145.292969 Z M 124.914062 145.292969 " fill-opacity="1" fill-rule="nonzero"/><path fill="#b14a2a" d="M 138.890625 151.566406 C 137.40625 150.796875 135.570312 151.386719 134.800781 152.875 C 134.039062 154.359375 134.617188 156.195312 136.121094 156.953125 C 136.5625 157.179688 137.03125 157.300781 137.503906 157.300781 C 138.609375 157.300781 139.671875 156.695312 140.203125 155.648438 C 140.96875 154.164062 140.378906 152.328125 138.890625 151.566406 Z M 138.890625 151.566406 " fill-opacity="1" fill-rule="nonzero"/><path fill="#b14a2a" d="M 146.609375 159.699219 C 147.519531 158.304688 147.125 156.421875 145.714844 155.511719 C 144.324219 154.585938 142.441406 154.996094 141.53125 156.394531 C 140.621094 157.804688 141.011719 159.683594 142.425781 160.589844 C 142.929688 160.921875 143.503906 161.074219 144.0625 161.074219 C 145.0625 161.078125 146.035156 160.589844 146.609375 159.699219 Z M 146.609375 159.699219 " fill-opacity="1" fill-rule="nonzero"/><path fill="#b14a2a" d="M 165.792969 124.03125 C 164.277344 123.316406 162.472656 123.988281 161.761719 125.5 C 161.0625 127.035156 161.714844 128.824219 163.246094 129.535156 C 163.65625 129.734375 164.097656 129.820312 164.519531 129.820312 C 165.65625 129.820312 166.75 129.171875 167.265625 128.0625 C 167.976562 126.53125 167.308594 124.742188 165.792969 124.03125 Z M 165.792969 124.03125 " fill-opacity="1" fill-rule="nonzero"/><path fill="#b14a2a" d="M 172.613281 127.050781 C 171.066406 126.410156 169.292969 127.140625 168.640625 128.6875 C 168.003906 130.234375 168.730469 132.007812 170.277344 132.644531 C 170.65625 132.8125 171.050781 132.886719 171.445312 132.886719 C 172.628906 132.886719 173.765625 132.1875 174.25 131.019531 C 174.886719 129.472656 174.160156 127.699219 172.613281 127.050781 Z M 172.613281 127.050781 " fill-opacity="1" fill-rule="nonzero"/><path fill="#b14a2a" d="M 179.515625 129.6875 C 177.921875 129.140625 176.191406 129.992188 175.664062 131.566406 C 175.117188 133.160156 175.96875 134.871094 177.558594 135.417969 C 177.878906 135.523438 178.210938 135.582031 178.527344 135.582031 C 179.785156 135.582031 180.96875 134.777344 181.410156 133.523438 C 181.941406 131.945312 181.089844 130.21875 179.515625 129.6875 Z M 179.515625 129.6875 " fill-opacity="1" fill-rule="nonzero"/><path fill="#b14a2a" d="M 159.011719 120.820312 L 159.011719 126.21875 C 159.589844 125.925781 160.09375 125.472656 160.390625 124.851562 C 161.113281 123.34375 160.492188 121.558594 159.011719 120.820312 Z M 159.011719 120.820312 " fill-opacity="1" fill-rule="nonzero"/><path fill="#b14a2a" d="M 214.390625 130.414062 C 212.859375 131.066406 212.148438 132.855469 212.800781 134.386719 C 213.300781 135.542969 214.40625 136.238281 215.589844 136.238281 C 215.925781 136.238281 216.273438 136.167969 216.613281 136.046875 L 216.257812 130.253906 C 215.664062 130.128906 214.988281 130.164062 214.390625 130.414062 Z M 214.390625 130.414062 " fill-opacity="1" fill-rule="nonzero"/><path fill="#b14a2a" d="M 207.75 132.476562 C 206.113281 132.8125 205.050781 134.414062 205.386719 136.054688 C 205.6875 137.480469 206.945312 138.480469 208.359375 138.480469 C 208.570312 138.480469 208.765625 138.453125 208.964844 138.417969 C 210.617188 138.074219 211.664062 136.480469 211.328125 134.84375 C 210.992188 133.191406 209.386719 132.144531 207.75 132.476562 Z M 207.75 132.476562 " fill-opacity="1" fill-rule="nonzero"/><path fill="#b14a2a" d="M 186.503906 131.71875 C 184.878906 131.328125 183.242188 132.34375 182.847656 133.96875 C 182.46875 135.585938 183.46875 137.226562 185.089844 137.625 C 185.332031 137.683594 185.574219 137.710938 185.800781 137.710938 C 187.167969 137.710938 188.40625 136.769531 188.742188 135.378906 C 189.144531 133.753906 188.144531 132.113281 186.503906 131.71875 Z M 186.503906 131.71875 " fill-opacity="1" fill-rule="nonzero"/><path fill="#b14a2a" d="M 200.742188 133.28125 C 199.058594 133.324219 197.757812 134.722656 197.800781 136.402344 C 197.863281 138.039062 199.195312 139.34375 200.835938 139.34375 C 200.867188 139.34375 200.894531 139.328125 200.925781 139.328125 C 202.609375 139.285156 203.925781 137.886719 203.867188 136.207031 C 203.820312 134.539062 202.410156 133.21875 200.742188 133.28125 Z M 200.742188 133.28125 " fill-opacity="1" fill-rule="nonzero"/><path fill="#b14a2a" d="M 193.601562 132.976562 C 191.933594 132.796875 190.4375 133.992188 190.253906 135.644531 C 190.070312 137.3125 191.269531 138.816406 192.9375 138.992188 C 193.042969 139.007812 193.164062 139.027344 193.269531 139.027344 C 194.800781 139.027344 196.105469 137.875 196.285156 136.328125 C 196.46875 134.660156 195.269531 133.160156 193.601562 132.976562 Z M 193.601562 132.976562 " fill-opacity="1" fill-rule="nonzero"/><path fill="#b14a2a" d="M 146.332031 243.351562 L 145.5625 243.242188 C 142.707031 242.835938 140.722656 240.183594 141.128906 237.328125 L 141.691406 233.414062 C 142.082031 230.710938 144.585938 228.835938 147.289062 229.226562 L 148.617188 229.414062 C 151.320312 229.804688 153.195312 232.308594 152.808594 235.011719 L 152.246094 238.921875 C 151.835938 241.777344 149.191406 243.757812 146.332031 243.351562 Z M 146.332031 243.351562 " fill-opacity="1" fill-rule="nonzero"/><path fill="#df7a4c" d="M 148.265625 256.652344 C 147.9375 255.9375 146.753906 256.378906 147.082031 257.097656 C 150.941406 265.515625 152.742188 274.675781 152.296875 283.765625 C 152.261719 284.535156 153.53125 284.722656 153.566406 283.949219 C 154.023438 274.636719 152.21875 265.273438 148.265625 256.652344 Z M 148.265625 256.652344 " fill-opacity="1" fill-rule="nonzero"/><g clip-path="url(#ee394f518e)"><path fill="#df7a4c" d="M 150.855469 285.457031 C 152.105469 275.140625 150.800781 264.507812 147.066406 254.648438 L 140.164062 254.492188 C 139.589844 255.132812 139.039062 255.796875 138.503906 256.46875 C 138.449219 256.496094 138.390625 256.523438 138.339844 256.574219 C 130.730469 263.847656 126.089844 273.71875 125.429688 283.984375 C 125.382812 284.75 126.648438 284.941406 126.699219 284.164062 C 127.03125 279.03125 128.371094 274.015625 130.59375 269.390625 C 128.660156 274.558594 127.679688 280.027344 127.699219 285.5625 C 127.699219 285.820312 127.847656 285.964844 128.03125 286.027344 C 128.128906 286.109375 128.242188 286.175781 128.359375 286.191406 C 128.730469 286.242188 128.996094 286 129.078125 285.683594 C 129.425781 284.359375 130.191406 283.171875 131.21875 282.230469 C 131.082031 283.070312 130.699219 283.914062 130.507812 284.761719 C 130.222656 286.035156 130.835938 287.796875 132.226562 287.789062 C 133.585938 287.78125 134.117188 286.167969 134.269531 284.898438 C 133.992188 285.960938 134.675781 287.25 135.820312 287.484375 C 136.964844 287.71875 138.1875 286.542969 137.738281 285.523438 C 138.0625 286.207031 138.171875 287.027344 139.085938 287.25 C 139.699219 287.398438 140.398438 287.125 140.710938 286.609375 C 140.691406 287.027344 140.644531 287.378906 140.789062 287.78125 C 141.046875 288.5 141.75 289.148438 142.554688 289.113281 C 143.300781 289.078125 143.894531 288.472656 144.113281 287.800781 C 144.328125 287.132812 144.246094 286.410156 144.160156 285.707031 C 144.410156 286.21875 144.492188 286.773438 144.839844 287.257812 C 145.128906 287.65625 145.554688 287.988281 146.054688 288.105469 C 146.554688 288.222656 147.121094 288.097656 147.453125 287.734375 C 147.671875 288.09375 147.855469 288.390625 148.328125 288.484375 C 149.089844 288.636719 149.863281 288.171875 150.261719 287.546875 C 150.65625 286.933594 150.765625 286.1875 150.855469 285.457031 Z M 150.855469 285.457031 " fill-opacity="1" fill-rule="nonzero"/></g><path fill="#c66038" d="M 146.613281 256.480469 C 146.46875 255.714844 145.195312 255.851562 145.34375 256.621094 C 146.808594 264.28125 147.730469 274.398438 147.460938 282.148438 C 147.4375 282.917969 148.707031 283.105469 148.730469 282.332031 C 149 274.472656 148.097656 264.25 146.613281 256.480469 Z M 146.613281 256.480469 " fill-opacity="1" fill-rule="nonzero"/><path fill="#c66038" d="M 144.96875 257.441406 C 144.988281 256.671875 143.71875 256.484375 143.699219 257.257812 C 143.523438 263.414062 143.113281 271.171875 142.941406 277.324219 C 142.921875 278.09375 144.1875 278.28125 144.210938 277.507812 C 144.386719 271.351562 144.792969 263.59375 144.96875 257.441406 Z M 144.96875 257.441406 " fill-opacity="1" fill-rule="nonzero"/><path fill="#c66038" d="M 141.472656 256.191406 C 135.542969 261.773438 130.808594 270.96875 130.710938 278.929688 C 130.703125 279.691406 131.972656 279.886719 131.980469 279.109375 C 132.070312 271.332031 137.054688 261.996094 142.851562 256.539062 C 143.433594 256 142.046875 255.65625 141.472656 256.191406 Z M 141.472656 256.191406 " fill-opacity="1" fill-rule="nonzero"/><path fill="#c66038" d="M 139.957031 280.546875 C 138.644531 274.496094 139.324219 268.234375 141.921875 262.628906 C 142.25 261.921875 141.070312 261.429688 140.742188 262.136719 C 138.058594 267.921875 137.332031 274.4375 138.6875 280.683594 C 138.855469 281.445312 140.128906 281.3125 139.957031 280.546875 Z M 139.957031 280.546875 " fill-opacity="1" fill-rule="nonzero"/><path fill="#bd572f" d="M 145.207031 256.25 C 145.144531 256.042969 145 255.933594 144.84375 255.894531 C 144.546875 255.6875 144.046875 255.671875 143.804688 256.054688 C 143.066406 257.226562 142.46875 258.441406 141.964844 259.683594 C 141.6875 259.410156 141.109375 259.351562 140.859375 259.789062 C 137 266.582031 135.152344 274.28125 135.449219 282.035156 C 135.476562 282.8125 136.75 282.667969 136.71875 281.894531 C 136.453125 274.992188 138.011719 268.144531 141.152344 261.976562 C 139.226562 268.433594 139.777344 275.515625 140.371094 282.199219 C 140.441406 282.96875 141.707031 282.832031 141.640625 282.058594 C 140.914062 273.882812 140.238281 265.140625 144.300781 257.71875 C 147.023438 267.019531 147.390625 276.824219 145.367188 286.203125 C 145.207031 286.960938 146.476562 287.140625 146.636719 286.382812 C 148.789062 276.441406 148.269531 266.054688 145.207031 256.25 Z M 145.207031 256.25 " fill-opacity="1" fill-rule="nonzero"/><path fill="#c66038" d="M 147.164062 256.960938 C 146.917969 256.214844 145.738281 256.664062 145.980469 257.40625 C 148.964844 266.445312 150.109375 275.957031 149.351562 285.332031 C 149.292969 286.101562 150.5625 286.292969 150.621094 285.515625 C 151.398438 275.914062 150.222656 266.214844 147.164062 256.960938 Z M 147.164062 256.960938 " fill-opacity="1" fill-rule="nonzero"/><path fill="#c66038" d="M 140.191406 256.332031 C 136.421875 258.898438 133.5 262.46875 131.824219 266.566406 C 131.53125 267.285156 132.710938 267.777344 133.003906 267.058594 C 134.605469 263.140625 138.351562 258.40625 141.953125 255.953125 C 142.617188 255.503906 140.855469 255.886719 140.191406 256.332031 Z M 140.191406 256.332031 " fill-opacity="1" fill-rule="nonzero"/><path fill="#df7a4c" d="M 138.808594 244.09375 C 136.816406 246.664062 137.230469 250.648438 139.730469 252.878906 C 144.347656 257 154.257812 253.628906 152.414062 247.042969 C 150.804688 241.273438 142.5625 239.253906 138.808594 244.09375 Z M 138.808594 244.09375 " fill-opacity="1" fill-rule="nonzero"/><path fill="#c66038" d="M 139.910156 252.199219 C 139.597656 252.144531 139.269531 252.089844 138.972656 252.203125 C 138.679688 252.316406 138.445312 252.664062 138.566406 252.960938 C 138.675781 253.222656 139.011719 253.335938 139.113281 253.605469 C 139.210938 253.875 139.027344 254.164062 138.8125 254.355469 C 138.597656 254.542969 138.34375 254.707031 138.226562 254.964844 C 138.050781 255.355469 138.285156 255.828125 138.636719 256.066406 C 138.988281 256.304688 139.425781 256.367188 139.847656 256.417969 C 141.210938 256.585938 142.578125 256.765625 143.941406 256.941406 C 144.285156 256.984375 144.632812 257.027344 144.976562 257.074219 C 145.296875 257.113281 145.664062 257.113281 145.972656 257.207031 C 146.578125 257.386719 147.179688 257.484375 147.820312 257.476562 C 148.128906 257.472656 148.476562 257.425781 148.640625 257.183594 C 148.789062 256.96875 148.730469 256.683594 148.710938 256.429688 C 148.699219 256.261719 148.710938 256.058594 148.816406 255.917969 C 148.921875 255.777344 149.140625 255.742188 149.179688 255.554688 C 149.226562 255.324219 148.941406 255.136719 148.917969 254.902344 C 148.886719 254.621094 149.25 254.40625 149.230469 254.125 C 149.21875 253.96875 149.097656 253.839844 148.949219 253.769531 C 148.804688 253.699219 148.636719 253.679688 148.476562 253.660156 C 147.71875 253.570312 146.980469 253.460938 146.238281 253.328125 C 144.132812 252.949219 142.019531 252.574219 139.910156 252.199219 Z M 139.910156 252.199219 " fill-opacity="1" fill-rule="nonzero"/></svg>